<svg xmlns="http://www.w3.org/2000/svg"><path fill="#202B3D" fill-rule="evenodd" d="M30.713 4.845h3.342v1.574h.048a4.306 4.306 0 0 1 1.393-1.255 5.08 5.08 0 0 1 1.029-.442 3.996 3.996 0 0 1 1.186-.173c.872 0 1.663.152 2.374.455.71.304 1.32.73 1.828 1.28.508.549.9 1.2 1.174 1.955.275.755.412 1.583.412 2.485 0 .836-.125 1.636-.375 2.398a6.635 6.635 0 0 1-1.066 2.03 5.224 5.224 0 0 1-1.683 1.414c-.662.353-1.413.53-2.252.53a6.153 6.153 0 0 1-2.119-.357 3.396 3.396 0 0 1-1.61-1.218h-.049v6.888h-3.632zm3.342 5.977c0 .902.254 1.632.763 2.19.508.557 1.222.836 2.143.836.92 0 1.634-.279 2.143-.836.508-.558.763-1.288.763-2.19 0-.902-.255-1.631-.763-2.19-.509-.557-1.223-.835-2.143-.835-.92 0-1.635.278-2.143.836-.509.558-.763 1.287-.763 2.19m11.043-5.977h3.632v1.918h.049c.387-.738.847-1.291 1.38-1.66.533-.37 1.203-.554 2.01-.554.21 0 .42.009.63.025.21.016.403.05.58.098v3.37a4.865 4.865 0 0 0-1.55-.246c-.693 0-1.242.099-1.646.296a2.198 2.198 0 0 0-.932.824c-.218.352-.36.775-.424 1.267a12.525 12.525 0 0 0-.097 1.623V16.8h-3.632zm8.452 5.977c0-.95.17-1.812.508-2.583.34-.77.803-1.43 1.393-1.98a6.132 6.132 0 0 1 2.082-1.267c.8-.295 1.65-.443 2.555-.443.904 0 1.756.148 2.555.443.799.295 1.493.718 2.082 1.267.59.55 1.054 1.21 1.393 1.98.339.771.508 1.632.508 2.583 0 .952-.17 1.813-.508 2.583a5.945 5.945 0 0 1-1.393 1.98c-.589.55-1.283.972-2.082 1.268-.8.295-1.65.442-2.555.442a7.314 7.314 0 0 1-2.555-.442 6.132 6.132 0 0 1-2.082-1.267 5.945 5.945 0 0 1-1.393-1.98c-.339-.772-.508-1.633-.508-2.584m3.632 0c0 .902.254 1.632.763 2.19.508.557 1.223.836 2.143.836.92 0 1.635-.279 2.143-.836.509-.558.763-1.288.763-2.19 0-.902-.254-1.631-.763-2.19-.508-.557-1.223-.835-2.143-.835-.92 0-1.635.278-2.143.836-.509.558-.763 1.287-.763 2.19m23.393 4.97c0 2.263-.56 3.98-1.683 5.153-1.122 1.173-2.829 1.76-5.121 1.76a13.57 13.57 0 0 1-3.1-.358 6.97 6.97 0 0 1-2.81-1.39l2.01-3.05a7.584 7.584 0 0 0 1.78 1.132 4.943 4.943 0 0 0 2.047.418c1.114 0 1.933-.275 2.458-.824.524-.55.787-1.25.787-2.104v-1.156h-.049c-.42.574-.94.98-1.562 1.218-.621.238-1.206.357-1.755.357-.872 0-1.663-.152-2.373-.455a5.291 5.291 0 0 1-1.829-1.28 5.72 5.72 0 0 1-1.174-1.955c-.275-.755-.412-1.583-.412-2.485a7.3 7.3 0 0 1 .376-2.312 6.35 6.35 0 0 1 1.065-1.993 5.364 5.364 0 0 1 1.683-1.39c.662-.352 1.413-.529 2.252-.529.517 0 .989.058 1.417.173.428.114.811.262 1.15.442.34.18.63.382.872.603a3.8 3.8 0 0 1 .581.652h.048V4.845h3.342zm-9.153-5.043a2.909 2.909 0 0 0 .835 2.054c.266.27.573.487.92.651.347.164.73.246 1.15.246.404 0 .784-.082 1.139-.245.355-.165.666-.382.932-.652a2.909 2.909 0 0 0 .835-2.054 2.909 2.909 0 0 0-.835-2.055 3.147 3.147 0 0 0-.932-.651 2.682 2.682 0 0 0-1.138-.246c-.42 0-.804.082-1.15.246a3.198 3.198 0 0 0-.921.651 2.89 2.89 0 0 0-.835 2.054m11.527-5.904h3.632v1.918h.049c.387-.738.847-1.291 1.38-1.66.533-.37 1.203-.554 2.01-.554.21 0 .42.009.63.025.21.016.403.05.58.098v3.37a4.864 4.864 0 0 0-1.55-.246c-.693 0-1.242.099-1.646.296a2.197 2.197 0 0 0-.932.824c-.218.352-.36.775-.424 1.267a12.525 12.525 0 0 0-.097 1.623V16.8H82.95zM99.659 15.3h-.049A3.429 3.429 0 0 1 98 16.676a5.46 5.46 0 0 1-2.12.418 5.384 5.384 0 0 1-1.585-.233 3.981 3.981 0 0 1-1.344-.701 3.376 3.376 0 0 1-.92-1.157c-.227-.459-.34-.992-.34-1.599 0-.688.126-1.27.376-1.746s.59-.87 1.017-1.181a5.018 5.018 0 0 1 1.465-.726c.549-.172 1.118-.3 1.707-.381.59-.082 1.179-.131 1.768-.148a59.048 59.048 0 0 1 1.635-.024c0-.656-.23-1.177-.69-1.562-.46-.386-1.006-.578-1.635-.578a3.51 3.51 0 0 0-1.635.38 4.474 4.474 0 0 0-1.32 1.046l-1.937-2.017a6.645 6.645 0 0 1 2.373-1.439c.904-.32 1.84-.48 2.81-.48 1.065 0 1.94.136 2.627.406.686.27 1.234.669 1.647 1.193.411.525.698 1.169.859 1.931.162.763.242 1.645.242 2.645V16.8h-3.341zm-.896-3.74c-.275 0-.618.013-1.03.037a5.141 5.141 0 0 0-1.186.21c-.38.114-.703.286-.969.516-.266.23-.4.55-.4.96 0 .442.186.77.558.983.37.213.758.32 1.162.32.355 0 .698-.05 1.03-.148.33-.098.625-.237.883-.418.259-.18.464-.41.617-.688.154-.28.23-.607.23-.985v-.787zm5.982-6.715h3.487v1.623h.048c.113-.23.274-.46.484-.689.21-.23.461-.434.751-.615.291-.18.621-.328.992-.442a4.095 4.095 0 0 1 1.211-.173c.824 0 1.555.173 2.192.517.638.344 1.118.886 1.441 1.624.42-.771.928-1.32 1.525-1.649.598-.328 1.332-.492 2.204-.492.791 0 1.457.136 1.998.406.541.27.968.64 1.283 1.107.315.468.542 1.017.679 1.648a9.56 9.56 0 0 1 .205 2.03v7.06h-3.632V9.838c0-.557-.117-1.037-.351-1.439-.234-.402-.65-.602-1.248-.602-.419 0-.77.07-1.053.209a1.74 1.74 0 0 0-.677.578c-.17.246-.292.533-.363.86-.073.329-.11.673-.11 1.034V16.8h-3.632v-6.322c0-.213-.008-.476-.025-.787a3.177 3.177 0 0 0-.169-.886 1.68 1.68 0 0 0-.473-.713c-.217-.197-.536-.295-.955-.295-.469 0-.848.086-1.139.258a1.75 1.75 0 0 0-.666.689c-.153.287-.254.61-.303.971a8.58 8.58 0 0 0-.072 1.132V16.8h-3.632zm20.535 0h3.487v1.623h.049c.112-.23.274-.46.484-.689.21-.23.46-.434.751-.615.29-.18.622-.328.993-.442a4.08 4.08 0 0 1 1.211-.173c.823 0 1.553.173 2.191.517.638.344 1.118.886 1.441 1.624.419-.771.928-1.32 1.526-1.649.596-.328 1.332-.492 2.203-.492.791 0 1.457.136 1.998.406.541.27.969.64 1.283 1.107a4.7 4.7 0 0 1 .678 1.648c.138.632.206 1.308.206 2.03v7.06h-3.633V9.838c0-.557-.117-1.037-.35-1.439-.234-.402-.65-.602-1.247-.602-.421 0-.771.07-1.054.209a1.75 1.75 0 0 0-.678.578 2.44 2.44 0 0 0-.363.86 4.744 4.744 0 0 0-.109 1.034V16.8h-3.633v-6.322c0-.213-.008-.476-.023-.787a3.178 3.178 0 0 0-.171-.886 1.694 1.694 0 0 0-.471-.713c-.219-.197-.538-.295-.957-.295-.469 0-.848.086-1.138.258a1.75 1.75 0 0 0-.666.689c-.154.287-.254.61-.303.971a8.58 8.58 0 0 0-.072 1.132V16.8h-3.633zm31.675 9.889a5.806 5.806 0 0 1-2.203 1.746 6.515 6.515 0 0 1-2.761.615 7.315 7.315 0 0 1-2.555-.442 6.141 6.141 0 0 1-2.083-1.267 5.961 5.961 0 0 1-1.392-1.98c-.338-.772-.509-1.633-.509-2.584 0-.95.171-1.812.509-2.583.339-.77.804-1.43 1.392-1.98a6.142 6.142 0 0 1 2.083-1.267 7.315 7.315 0 0 1 2.555-.443c.839 0 1.602.148 2.288.443a4.776 4.776 0 0 1 1.744 1.267c.476.55.843 1.21 1.102 1.98.258.771.387 1.632.387 2.583v1.157h-8.427c.145.705.46 1.266.945 1.685.484.418 1.082.627 1.791.627.598 0 1.102-.135 1.514-.406a4.08 4.08 0 0 0 1.077-1.046zm-3.075-5.265a2.151 2.151 0 0 0-.606-1.599c-.419-.442-.96-.664-1.622-.664-.404 0-.759.066-1.065.197-.307.131-.57.3-.788.504a2.24 2.24 0 0 0-.509.714c-.121.27-.189.553-.205.848zm5.304-4.624h3.632v1.918h.048c.388-.738.848-1.291 1.38-1.66.534-.37 1.203-.554 2.01-.554.21 0 .421.009.63.025.21.016.404.05.581.098v3.37a4.853 4.853 0 0 0-1.549-.246c-.694 0-1.243.099-1.647.296a2.189 2.189 0 0 0-.932.824c-.218.352-.36.775-.425 1.267a12.64 12.64 0 0 0-.096 1.623V16.8h-3.632zm15.983 3.517c-.533-.672-1.235-1.008-2.107-1.008-.307 0-.606.074-.896.221-.291.148-.436.402-.436.763 0 .295.149.512.449.652.298.139.677.262 1.138.369l1.476.344a5.498 5.498 0 0 1 1.478.578c.459.262.839.62 1.138 1.07.299.451.448 1.054.448 1.808 0 .771-.166 1.407-.497 1.907-.33.5-.755.902-1.271 1.205a5.409 5.409 0 0 1-1.744.64c-.646.123-1.283.184-1.912.184a9.124 9.124 0 0 1-2.495-.356 4.646 4.646 0 0 1-2.131-1.267l2.204-2.485c.339.427.715.75 1.126.972.412.221.892.332 1.44.332.421 0 .8-.062 1.139-.185.339-.123.508-.348.508-.676 0-.312-.149-.545-.448-.701a4.843 4.843 0 0 0-1.138-.394 632.37 632.37 0 0 1-1.477-.344 6.035 6.035 0 0 1-1.477-.554 3.096 3.096 0 0 1-1.138-1.045c-.299-.451-.449-1.054-.449-1.808 0-.705.142-1.312.425-1.82a3.747 3.747 0 0 1 1.114-1.255c.46-.328.988-.57 1.586-.726a7.167 7.167 0 0 1 1.816-.234c.775 0 1.557.115 2.349.345.791.23 1.461.64 2.01 1.23zM2.953 0h17.72c1.63 0 2.952 1.343 2.952 3v18c0 1.657-1.322 3-2.953 3H2.953C1.323 24 0 22.657 0 21V3c0-1.657 1.322-3 2.953-3" clip-rule="evenodd"></path><mask id="a" width="24" height="24" x="0" y="0" maskUnits="userSpaceOnUse" style="mask-type: alpha;"><path fill="#fff" fill-rule="evenodd" d="M2.953 0h17.72c1.63 0 2.952 1.343 2.952 3v18c0 1.657-1.322 3-2.953 3H2.953C1.323 24 0 22.657 0 21V3c0-1.657 1.322-3 2.953-3" clip-rule="evenodd"></path></mask><g fill="#fff" fill-rule="evenodd" clip-rule="evenodd" mask="url(#a)"><path d="M14.536 8.598c-.504.067-2.472-1.177-6.24-3.233-3.288-1.794-2.392.754-2.102 1.45.04.099.05.207.024.31-.124.5-.2 2.385 3.63 6.529.152.165.216.331.096.523l-.041.069c-.525.854 5.018-5.963 4.633-5.648" opacity="0.56"></path><path d="M14.536 8.598c-.484-.106-.63-.218-2.33-4.21-1.272-2.987-2.5-.156-2.47.602a.492.492 0 0 1-.085.298c-.29.422-1.796 2.766.344 8.021.085.21.07.656-.05.867a13.78 13.78 0 0 0-.042.07c-.525.854 5.018-5.963 4.633-5.648" opacity="0.32"></path><path d="M18.851 8c-.541-.051-.97-.968-1.907-.968-.98 0-2.022 1.25-2.408 1.566-.558.354-3.543.38-7.959.694-3.906.278-2.449 1.344-2 1.619.064.038.095.095.087.162-.039.325.48 1.763 5.073 2.715.43.09.166.457.166.457-.525.854-2.27 3.844-2.829 6.484-.113.536.405-.792 2.547-2.642 2.143-1.849 4.288-1.523 6.2-4.053 1.913-2.53.97-4.29 3.03-4.834L23.576 8s-4.674.005-4.725 0"></path></g></svg>